# xmcd
#
# Track frame offsets: 
#        150
#        15989
#        34297
#        50068
#        68679
#        83246
#        97951
#        112473
#        132911
#        148299
#
# Disc length: 2207 seconds
#
# Revision: 0
# Processed by: cddbd v1.5.2PL0 Copyright (c) Steve Scherf et al.
# Submitted via: ExactAudioCopy v0.99pb4
#
DISCID=8f089d0a
DTITLE=Ed Bruce - One To One
DYEAR=1981
DGENRE=Country
TTITLE0=(When You Fall In Love) Everything's a Waltz
TTITLE1=Evil Angel
TTITLE2=You're the Best Break This Old Heart Ever Had
TTITLE3=It Just Makes Me Want You More
TTITLE4=Hundred Dollar Lady
TTITLE5=Love's Found You and Me
TTITLE6=I Take the Chance
TTITLE7=No Regrets
TTITLE8=Thirty-Nine and Holding
TTITLE9=Easy Temptations
EXTD=
EXTT0=
EXTT1=
EXTT2=
EXTT3=
EXTT4=
EXTT5=
EXTT6=
EXTT7=
EXTT8=
EXTT9=
PLAYORDER=
